# xmcd CD database file
#
# Track frame offsets:
#	150
#	14088
#	27784
#	40018
#	53918
#	68194
#	105644
#	119888
#	131434
#	145415
#	159546
#	171959
#	186348
#	198716
#	210960
#	221631
#	235376
#	249922
#
# Disc length: 3483 seconds
#
# Revision: 2
# Processed by: cddbd v1.5.2PL0 Copyright (c) Steve Scherf et al.
# Submitted via: CDex 1.70beta2
#
DISCID=100d9912
DTITLE=Erroll Garner - Erroll Garner CD3
DYEAR=2005
DGENRE=Jazz
TTITLE0=1-Embraceable You
TTITLE1=2-Don't Blame Me
TTITLE2=3-Ain´t She Sweet
TTITLE3=4-Blue Lou - Part 1
TTITLE4=5-Blue Lou - Part 2
TTITLE5=6-I Hear A Rhapsody (Parts 1 and 2)
TTITLE6=7-I Can´t Give You Anything But Love
TTITLE7=8-I´ve Got You Under My Skin
TTITLE8=9-Movin´ Around
TTITLE9=10-Poor Butterfly
TTITLE10=11-Laura
TTITLE11=12-Lover
TTITLE12=13-It´s Easy To Remember
TTITLE13=14-Somebody Loves Me
TTITLE14=15-Fine And Dandy
TTITLE15=16-Over The Rainbow
TTITLE16=17-Gaslight
TTITLE17=18-High Octane
EXTD=YEAR: 2005
EXTT0=
EXTT1=
EXTT2=
EXTT3=
EXTT4=
EXTT5=
EXTT6=
EXTT7=
EXTT8=
EXTT9=
EXTT10=
EXTT11=
EXTT12=
EXTT13=
EXTT14=
EXTT15=
EXTT16=
EXTT17=
PLAYORDER=
